<?xml version="1.0" encoding="UTF-8"?>
<svg width="24px" height="24px" viewBox="0 0 24 24" version="1.1" xmlns="http://www.w3.org/2000/svg" xmlns:xlink="http://www.w3.org/1999/xlink">
    <!-- Generator: Sketch 52.6 (67491) - http://www.bohemiancoding.com/sketch -->
    <title>选择日期-图标@2x</title>
    <desc>Created with Sketch.</desc>
    <g id="选择日期-图标" stroke="none" stroke-width="1" fill="none" fill-rule="evenodd">
        <g id="分组-22" transform="translate(1.000000, 2.000000)" fill="#AFA5A5" fill-rule="nonzero">
            <path d="M19.2700186,1.25 L16.5046555,1.25 L16.5046555,0.75 C16.5046555,0.375 16.1275605,0 15.7504655,0 C15.3733706,0 14.9962756,0.375 14.9962756,0.75 L14.9962756,1.25 L6.5744879,1.25 L6.5744879,0.75 C6.5744879,0.375 6.19739292,0 5.82029795,0 C5.44320298,0 5.06610801,0.375 5.06610801,0.75 L5.06610801,1.25 L2.17504655,1.25 C1.42085661,1.25 0.666666667,1.875 0.666666667,2.75 L0.666666667,18.375 C0.666666667,19.25 1.42085661,20 2.17504655,20 L19.1443203,20 C20.0242086,20 20.6527002,19.25 20.6527002,18.5 L20.6527002,2.75 C20.7783985,1.875 20.0242086,1.25 19.2700186,1.25 Z M19.2700186,18.5 L2.17504655,18.5 L2.17504655,6 L19.1443203,6 L19.1443203,18.5 L19.2700186,18.5 Z M19.2700186,4.375 L2.17504655,4.375 L2.17504655,2.75 L4.94040968,2.75 L4.94040968,2.875 C4.94040968,3.25 5.31750466,3.625 5.69459963,3.625 C6.0716946,3.625 6.44878957,3.25 6.44878957,2.875 L6.44878957,2.75 L14.744879,2.75 L14.744879,2.875 C14.744879,3.25 15.1219739,3.625 15.4990689,3.625 C15.8761639,3.625 16.2532588,3.25 16.2532588,2.875 L16.2532588,2.75 L19.018622,2.75 L19.018622,4.375 L19.2700186,4.375 Z" id="形状"></path>
            <path d="M5.82029795,11.25 L7.32867784,11.25 C7.83147114,11.25 8.20856611,10.875 8.20856611,10.5 C8.20856611,10.125 7.83147114,9.625 7.45437616,9.625 L5.82029795,9.625 C5.44320298,9.625 5.06610801,10 5.06610801,10.5 C5.06610801,11 5.44320298,11.25 5.82029795,11.25 Z M9.96834264,11.25 L11.4767225,11.25 C11.9795158,11.25 12.2309125,10.875 12.2309125,10.5 C12.2309125,10.125 11.9795158,9.625 11.4767225,9.625 L9.96834264,9.625 C9.46554935,9.625 9.2141527,10 9.2141527,10.5 C9.2141527,11 9.46554935,11.25 9.96834264,11.25 Z M13.990689,11.25 L15.4990689,11.25 C15.8761639,11.25 16.2532588,10.875 16.2532588,10.5 C16.2532588,10.125 15.8761639,9.75 15.4990689,9.75 L13.990689,9.75 C13.613594,9.625 13.2364991,10 13.2364991,10.5 C13.2364991,11 13.613594,11.25 13.990689,11.25 Z M5.82029795,15.375 L7.32867784,15.375 C7.83147114,15.375 8.20856611,15 8.20856611,14.5 C8.20856611,14 7.83147114,13.75 7.45437616,13.75 L5.82029795,13.75 C5.44320298,13.75 5.06610801,14.125 5.06610801,14.5 C5.06610801,14.875 5.44320298,15.375 5.82029795,15.375 Z M9.96834264,15.375 L11.4767225,15.375 C11.8538175,15.375 12.2309125,15 12.2309125,14.625 C12.2309125,14.25 11.9795158,13.75 11.4767225,13.75 L9.96834264,13.75 C9.59124767,13.75 9.2141527,14.125 9.2141527,14.5 C9.2141527,14.875 9.46554935,15.375 9.96834264,15.375 Z" id="形状"></path>
        </g>
    </g>
</svg>