<?xml version="1.0" encoding="UTF-8"?>
<svg width="20px" height="20px" viewBox="0 0 20 20" version="1.1" xmlns="http://www.w3.org/2000/svg" xmlns:xlink="http://www.w3.org/1999/xlink">
    <!-- Generator: Sketch 52.6 (67491) - http://www.bohemiancoding.com/sketch -->
    <title>数据说明-图标@2x</title>
    <desc>Created with Sketch.</desc>
    <g id="数据说明-图标" stroke="none" stroke-width="1" fill="none" fill-rule="evenodd">
        <g id="说明" transform="translate(0.000000, -0.000000)" fill="#AFA8AA" fill-rule="nonzero">
            <path d="M9.93045706,13.8172658 C9.68294325,13.8172658 9.47668174,13.8997704 9.35292483,14.0647796 C9.18791562,14.2297888 9.10541102,14.3947981 9.10541102,14.6423119 C9.10541102,14.8898257 9.18791562,15.0548349 9.35292483,15.2198441 C9.51793404,15.3848533 9.72419555,15.4673579 9.93045706,15.4673579 C10.1367186,15.4673579 10.3429801,15.3848533 10.5079893,15.2198441 C10.6729985,15.0548349 10.7555031,14.8485734 10.7555031,14.6423119 C10.7555031,14.4360504 10.6729985,14.2297888 10.5079893,14.0647796 C10.3842324,13.8585181 10.1367186,13.7760135 9.93045706,13.8172658 Z M10.1367186,5.44304851 C9.14666332,5.44304851 8.40412189,5.73181463 7.82658966,6.35059916 C7.29030973,6.92813138 7.00154362,7.71192512 7.00154362,8.66072807 L8.11535577,8.66072807 C8.11535577,8.00069124 8.28036498,7.46441131 8.56913109,7.09314059 C8.89914951,6.63936527 9.43542944,6.43310376 10.0954663,6.43310376 C10.6729985,6.43310376 11.1267738,6.59811297 11.4567922,6.92813138 C11.7455583,7.2168975 11.9105676,7.67067282 11.9105676,8.20695275 C11.9105676,8.57822347 11.7868107,8.94949418 11.4980445,9.2795126 C11.4155399,9.40326951 11.2505307,9.56827871 11.0442692,9.77454022 C10.3017278,10.4345771 9.84795246,10.970857 9.64169095,11.38338 C9.47668174,11.7133984 9.39417713,12.1259214 9.39417713,12.5796968 L9.39417713,12.9097152 L10.5079893,12.9097152 L10.5079893,12.5796968 C10.5079893,12.208426 10.5904939,11.8784076 10.7555031,11.5483892 C10.87926,11.3008754 11.0855215,11.0533616 11.3742876,10.8058478 C11.9930722,10.2695678 12.3643429,9.89829713 12.4880998,9.73328792 C12.8181182,9.2795126 13.0243797,8.70198037 12.9831274,8.12444814 C12.9831274,7.2994021 12.7356136,6.63936527 12.1993337,6.18558995 C11.704306,5.69056232 11.0030169,5.44304851 10.1367186,5.44304851 Z" id="形状"></path>
            <path d="M10.0129617,0.699033779 C4.85642391,0.699033779 0.689941406,4.86551628 0.689941406,10.022054 C0.689941406,15.1785918 4.85642391,19.3450743 10.0129617,19.3450743 C15.1694994,19.3450743 19.3359819,15.1785918 19.3359819,10.022054 C19.3359819,4.53549787 15.4995178,0.699033779 10.0129617,0.699033779 Z M10.0129617,18.2725144 C5.47520844,18.2725144 1.76250126,14.5598073 1.76250126,10.022054 C1.76250126,5.48430081 5.47520844,1.77159363 10.0129617,1.77159363 C14.8807333,1.77159363 18.2634221,5.1542824 18.2634221,10.022054 C18.2634221,14.5598073 14.5507149,18.2725144 10.0129617,18.2725144 Z" id="形状"></path>
        </g>
    </g>
</svg>