<?xml version="1.0" encoding="UTF-8"?>
<svg width="34px" height="34px" viewBox="0 0 34 34" version="1.1" xmlns="http://www.w3.org/2000/svg" xmlns:xlink="http://www.w3.org/1999/xlink">
    <!-- Generator: Sketch 52.6 (67491) - http://www.bohemiancoding.com/sketch -->
    <title>shijian-icon@2x</title>
    <desc>Created with Sketch.</desc>
    <g id="shijian-icon" stroke="none" stroke-width="1" fill="none" fill-rule="evenodd">
        <circle id="椭圆形" fill="#FF626F" cx="16.6666667" cy="16.6666667" r="16.6666667"></circle>
        <g id="时间-小-1" transform="translate(6.666667, 6.666667)" fill="#FFFFFF">
            <path d="M10,0 C4.4771525,-3.38176876e-16 6.76353751e-16,4.4771525 0,10 C-6.76353751e-16,15.5228475 4.4771525,20 10,20 C15.5228475,20 20,15.5228475 20,10 C20,4.4771525 15.5228475,2.55862292e-15 10,0 Z M10,18.4216667 C5.34884194,18.4216667 1.57833334,14.6511581 1.57833334,10 C1.57833334,5.34884194 5.34884194,1.57833334 10,1.57833334 C14.6511581,1.57833334 18.4216667,5.34884194 18.4216667,10 C18.4198266,14.650126 14.6501263,18.4190803 10,18.42 L10,18.4216667 Z" id="形状" fill-rule="nonzero"></path>
            <path d="M15,10.5266667 L10.5266667,10.5266667 L10.5266667,5.52666666 C10.5266667,5.09036171 10.1729716,4.73666666 9.73666666,4.73666666 C9.30036171,4.73666666 8.94666666,5.09036171 8.94666666,5.52666666 L8.94666666,11.3166667 C8.94666666,11.7516667 9.3,12.105 9.73666666,12.105 L15,12.105 C15.436305,12.105 15.79,11.751305 15.79,11.315 C15.79,10.878695 15.436305,10.525 15,10.525 L15,10.5266667 Z" id="路径"></path>
        </g>
    </g>
</svg>